<svg width="56" height="16" viewBox="0 0 56 16" fill="none" xmlns="http://www.w3.org/2000/svg">
<path fill-rule="evenodd" clip-rule="evenodd" d="M5.78733 0.54945C6.28163 0.546493 7.75067 0.414184 8.37292 2.51429C8.79208 3.92895 9.45978 6.24623 10.376 9.46612H10.7491C11.7317 6.07148 12.4067 3.75421 12.7741 2.51429C13.4028 0.392308 14.9747 0.549492 15.6034 0.549492L20.4543 0.549498V15.6391H15.5101V6.74656H15.1786L12.4225 15.6391H8.70266L5.94656 6.73997H5.61502V15.6391H0.670898V0.549498L5.78733 0.54945ZM27.5539 0.549498V9.4487H27.9483L31.3009 2.13095C31.9517 0.674696 33.3387 0.549498 33.3387 0.549498H38.1231V15.6392H33.0758V6.73997H32.6813L29.3945 14.0577C28.7437 15.5074 27.291 15.6392 27.291 15.6392H22.5065V0.549498H27.5539ZM55.5691 7.72021C54.8651 9.71534 52.6541 11.1442 50.2062 11.1442H44.913V15.6392H40.1132V7.72021H55.5691Z" fill="#0F754E"/>
</svg>
